# xmcd
#
# Track frame offsets:
#	150
#	24678
#	57983
#	84401
#	119957
#	146793
#	165807
#	189933
#	207349
#	228634
#	245717
#	271643
#	293208
#
# Disc length: 4241 seconds
#
# Revision: 1
# Processed by: cddbd v1.5.1PL0 Copyright (c) Steve Scherf et al.
# Submitted via: audiograbber 1.83.01
#
DISCID=be108f0d
DTITLE=Eric clapton - Pilgrim
DYEAR=1900
DGENRE=
TTITLE0=My fathers eyes
TTITLE1=River of Tears
TTITLE2=Pilgrim
TTITLE3=Broken hearted
TTITLE4=One change
TTITLE5=Circus
TTITLE6=Going down Slow
TTITLE7=Fall like rain
TTITLE8=Born in time
TTITLE9=Sick and tired
TTITLE10=Needs his woman
TTITLE11=She's one
TTITLE12=You were there
EXTD=
EXTT0=
EXTT1=
EXTT2=
EXTT3=
EXTT4=
EXTT5=
EXTT6=
EXTT7=
EXTT8=
EXTT9=
EXTT10=
EXTT11=
EXTT12=
PLAYORDER=
